<svg width="192" height="192" viewBox="0 0 192 192" fill="none" xmlns="http://www.w3.org/2000/svg">
  <rect width="192" height="192" rx="48" fill="#EC4899"/>
  <path d="M96 48C109.255 48 120 58.7452 120 72C120 78.6274 114.627 84 108 84H84C77.3726 84 72 78.6274 72 72C72 58.7452 82.7452 48 96 48Z" fill="white"/>
  <path d="M60 96C60 89.3726 65.3726 84 72 84H120C126.627 84 132 89.3726 132 96V120C132 133.255 121.255 144 108 144H84C70.7452 144 60 133.255 60 120V96Z" fill="white"/>
  <circle cx="96" cy="114" r="12" fill="#EC4899"/>
</svg>
