<svg width="512" height="512" viewBox="0 0 512 512" fill="none" xmlns="http://www.w3.org/2000/svg">
  <rect width="512" height="512" rx="128" fill="#EC4899"/>
  <path d="M256 128C291.346 128 320 156.654 320 192C320 209.673 305.673 224 288 224H224C206.327 224 192 209.673 192 192C192 156.654 220.654 128 256 128Z" fill="white"/>
  <path d="M160 256C160 238.327 177.673 224 192 224H320C337.327 224 352 238.327 352 256V320C352 355.346 323.346 384 288 384H224C188.654 384 160 355.346 160 320V256Z" fill="white"/>
  <circle cx="256" cy="304" r="32" fill="#EC4899"/>
</svg>
